<svg version="1.0" xmlns="http://www.w3.org/2000/svg"
        width="100px" height="50px" viewBox="0 0 500.000000 233.000000"
        preserveAspectRatio="xMidYMid meet">

        <g transform="translate(0.000000,233.000000) scale(0.100000,-0.100000)"
            fill="#000000" stroke="none">
            <path d="M880 2151 c-331 -71 -595 -336 -666 -671 -20 -97 -18 -269 6 -367 63
-264 232 -474 471 -588 71 -33 211 -75 252 -75 11 0 28 -6 36 -14 9 -8 129
-77 267 -155 l251 -140 333 221 c299 199 331 223 314 235 -21 15 -38 17 -29 3
5 -9 -606 -420 -625 -420 -5 0 -119 61 -253 136 -223 123 -246 138 -260 172
-25 56 -32 112 -16 112 8 0 126 -59 264 -130 l249 -129 261 163 c143 90 295
185 337 212 43 27 76 53 75 59 -2 5 -114 50 -248 100 -233 86 -242 90 -201 96
73 9 86 53 14 47 -35 -3 -37 -2 -43 35 -8 47 -15 54 -36 35 -22 -19 -63 -30
-63 -16 0 5 -4 6 -10 3 -6 -4 -8 6 -6 24 3 32 -15 58 -34 46 -5 -3 -10 -14
-10 -24 0 -11 -18 -30 -42 -46 -54 -34 -88 -65 -88 -79 0 -5 15 4 33 20 73 69
128 90 126 50 0 -19 -1 -19 -11 -5 -10 14 -22 5 -90 -64 -74 -77 -110 -97 -74
-42 9 14 14 30 11 35 -3 6 10 41 30 78 31 60 42 71 90 95 l54 26 22 -35 c16
-26 19 -38 10 -47 -17 -17 -13 -31 5 -16 9 8 36 19 59 25 l43 10 5 -40 c4 -24
1 -46 -6 -55 -10 -12 -9 -13 3 -5 8 5 39 9 68 9 35 0 56 5 62 15 13 21 3 30
-33 30 -31 1 -30 2 16 20 59 23 77 37 77 61 0 37 -48 23 -99 -30 l-48 -49 1
41 c1 40 0 41 -32 44 -19 2 -42 -2 -53 -7 -10 -6 -19 -7 -19 -3 1 21 21 35 61
44 49 11 69 25 69 47 0 11 -8 13 -40 8 -38 -6 -40 -5 -31 12 6 11 25 22 42 26
36 7 69 32 69 53 0 18 -32 17 -56 -3 -20 -16 -13 -16 31 2 8 3 15 1 15 -5 0
-7 -16 -19 -35 -27 -42 -17 -48 -18 -38 -1 7 12 8 16 11 48 1 10 14 19 32 22
29 6 70 39 70 56 0 19 -30 19 -54 0 -30 -23 -34 -10 -11 31 8 14 14 46 15 73
0 40 -3 47 -20 47 -26 0 -34 -35 -27 -108 6 -56 5 -56 -8 -24 -8 17 -21 32
-30 32 -22 0 -19 -52 6 -84 14 -18 18 -33 13 -48 -6 -20 -8 -19 -18 12 -13 43
-40 46 -44 7 -3 -23 -6 -26 -18 -16 -7 6 -25 9 -38 7 -15 -3 -27 1 -35 14 -14
22 -56 24 -73 2 -7 -9 -25 -28 -40 -42 -34 -32 -38 -81 -8 -89 32 -9 20 -74
-27 -143 l-24 -35 6 70 c3 39 8 87 11 108 7 58 -12 44 -34 -25 -24 -76 -35
-145 -24 -152 5 -3 10 14 10 37 1 24 8 63 16 87 l14 45 1 -45 c0 -44 -25 -191
-28 -157 0 9 -5 17 -9 17 -5 0 -6 -14 -4 -31 6 -38 -28 -156 -39 -137 -16 29
-13 107 5 127 19 21 14 41 -9 41 -24 0 -24 28 1 51 23 21 35 79 16 79 -22 0
-53 -36 -63 -73 -6 -23 -22 -62 -37 -87 l-26 -45 -14 45 c-19 64 -25 151 -12
185 8 22 13 26 19 16 8 -13 5 -31 -14 -86 -6 -19 -6 -19 8 -2 25 30 30 19 25
-54 -7 -87 3 -78 27 25 13 60 24 86 44 103 119 106 141 128 141 139 0 8 -8 14
-18 14 -20 0 -92 -56 -92 -72 0 -6 18 6 40 26 48 44 69 47 40 6 -19 -26 -50
-52 -90 -75 -12 -7 -13 -6 -5 6 6 8 11 57 10 109 0 84 -2 95 -17 94 -32 -3
-16 29 20 40 34 11 82 56 82 77 0 28 -24 23 -65 -13 l-36 -31 7 29 c4 16 24
56 45 89 42 68 74 157 65 181 -3 9 -15 14 -28 12 -33 -4 -65 -75 -73 -156 -3
-37 -11 -85 -16 -107 l-11 -39 -13 38 c-13 37 -29 56 -49 56 -17 0 3 -81 28
-114 26 -35 26 -66 0 -96 -13 -15 -14 -19 -14 -43 0 -7 -7 -22 -15 -33 -14
-18 -14 -17 -15 14 0 19 8 40 21 53 11 11 18 24 14 27 -11 11 -45 -38 -46 -67
l-1 -26 -12 29 c-8 17 -10 43 -6 66 4 21 6 48 4 61 -1 13 -3 32 -3 41 -1 12
-10 16 -33 16 -18 0 -39 -5 -45 -10 -7 -6 -22 -8 -33 -5 -30 8 -50 -19 -50
-66 0 -38 -1 -40 -13 -22 -7 11 -19 38 -25 60 -15 52 -54 106 -94 127 -36 20
-48 16 -48 -16 0 -31 41 -83 97 -123 45 -32 73 -63 56 -63 -4 0 -17 7 -27 15
-22 17 -62 20 -70 6 -10 -16 51 -59 94 -66 37 -6 71 -38 56 -52 -3 -4 -1 -12
5 -20 17 -20 1 -16 -28 7 -15 11 -28 18 -31 15 -3 -3 4 -12 16 -21 35 -24 28
-45 -14 -41 -19 3 -40 9 -46 15 -13 13 -2 32 18 32 17 0 19 17 2 23 -7 2 -10
8 -5 12 4 5 24 1 45 -8 l37 -17 -24 20 c-25 22 -71 27 -71 8 0 -9 -3 -9 -12 0
-22 22 -66 14 -95 -18 -33 -38 -51 -39 -25 -2 20 28 25 44 23 75 -2 27 -19 20
-41 -15 -17 -29 -20 -30 -20 -11 0 12 11 34 25 49 27 30 34 74 11 74 -8 0 -22
-10 -32 -22 -14 -20 -15 -20 -9 -3 4 11 10 44 13 72 4 44 1 54 -13 59 -10 4
-21 1 -26 -7 -11 -15 -6 -113 6 -144 8 -19 6 -18 -17 3 -24 22 -58 30 -58 13
0 -25 16 -44 51 -62 26 -13 39 -26 39 -40 0 -19 -1 -19 -22 -5 -28 20 -58 21
-58 3 0 -19 30 -45 68 -58 26 -9 30 -14 22 -24 -6 -8 -18 -11 -26 -8 -22 8
-44 -4 -38 -21 3 -8 21 -24 40 -35 38 -23 44 -41 14 -41 -27 0 -25 -6 10 -47
31 -35 35 -49 21 -72 -7 -10 -19 -4 -55 29 -43 40 -46 41 -46 19 0 -41 55
-142 98 -181 22 -20 64 -45 92 -55 65 -23 119 -75 100 -97 -17 -21 -6 -44 26
-56 15 -6 24 -13 21 -16 -15 -15 -147 75 -222 151 -142 143 -215 320 -215 520
0 329 201 608 515 715 28 9 50 23 50 31 0 22 -170 22 -275 0z m510 -343 c0
-33 -35 -116 -64 -153 -15 -20 -15 -20 -16 5 0 14 7 52 15 85 23 87 65 127 65
63z m-483 -191 c32 -36 59 -94 50 -104 -17 -17 -117 89 -117 125 0 23 38 12
67 -21z m-137 -26 c0 -46 -9 -73 -21 -65 -10 6 -12 64 -3 88 11 29 24 17 24
-23z m490 -27 c5 -21 7 -40 5 -42 -8 -8 -45 64 -45 88 0 22 1 23 16 9 8 -9 19
-34 24 -55z m120 16 c0 -15 -47 -57 -70 -63 -18 -5 -18 -4 -3 19 9 14 28 31
42 39 32 17 31 17 31 5z m390 -32 c0 -42 -10 -78 -21 -78 -10 0 -12 93 -2 103
14 15 23 5 23 -25z m-626 -78 l7 -45 -17 30 c-20 35 -34 91 -26 100 10 9 29
-37 36 -85z m15 48 l-1 -43 -8 35 c-8 32 -6 50 6 50 2 0 4 -19 3 -42z m-109
-10 c-1 -18 -7 -44 -15 -58 -14 -25 -14 -24 -15 17 0 23 3 48 6 57 10 27 24
18 24 -16z m56 -25 l13 -38 -25 28 c-13 15 -24 38 -24 50 0 30 20 8 36 -40z
m-296 23 c0 -17 -39 -66 -40 -49 0 18 22 63 32 63 4 0 8 -6 8 -14z m-90 -31
c13 -14 21 -27 18 -30 -7 -7 -58 34 -58 46 0 16 16 10 40 -16z m355 -39 c-8
-11 -15 -36 -15 -56 l-1 -35 -15 28 c-14 25 -14 32 2 74 16 41 19 43 30 28 11
-15 11 -21 -1 -39z m639 28 c3 -9 6 -25 6 -37 -1 -22 -1 -22 -15 -3 -17 22
-20 56 -6 56 5 0 12 -7 15 -16z m-739 -25 c18 -17 18 -19 2 -19 -25 0 -77 28
-77 41 0 16 51 1 75 -22z m320 -54 c-4 -37 -9 -64 -13 -61 -7 7 -3 117 5 129
12 19 15 -6 8 -68z m-192 18 c-3 -7 -8 -13 -12 -13 -16 0 -20 14 -10 33 9 15
13 17 19 7 5 -7 6 -19 3 -27z m703 18 c-19 -21 -56 -34 -56 -21 0 12 41 40 59
40 11 0 11 -4 -3 -19z m-998 -43 l-13 -23 -3 23 c-4 28 21 66 26 39 2 -9 -3
-26 -10 -39z m335 35 c8 -10 19 -31 23 -48 l7 -30 -31 29 c-17 15 -30 37 -29
47 2 24 9 24 30 2z m-403 -38 c30 -32 10 -33 -27 0 -20 17 -23 24 -12 25 8 0
26 -11 39 -25z m950 -28 c0 -16 -4 -26 -10 -22 -5 3 -10 2 -10 -4 0 -5 4 -12
10 -16 5 -3 7 -12 4 -20 -12 -31 -23 -2 -20 53 5 71 4 70 16 52 5 -8 10 -28
10 -43z m-142 31 c7 -7 12 -20 12 -30 0 -22 -37 -24 -65 -4 -16 12 -17 16 -6
30 16 19 42 21 59 4z m-627 -14 c17 -21 0 -48 -33 -52 -34 -4 -53 20 -38 47
13 25 52 28 71 5z m221 -14 c38 -34 20 -41 -29 -10 -20 12 -33 15 -33 8 0 -6
-2 -9 -5 -6 -9 9 7 38 21 38 7 0 28 -13 46 -30z m126 -60 c0 -19 -8 -57 -18
-85 -17 -47 -18 -48 -19 -18 -1 18 4 67 11 110 9 60 13 72 19 53 4 -14 7 -41
7 -60z m-42 -15 l-13 -80 -7 57 c-7 47 -5 60 10 81 11 14 20 24 21 23 1 -1 -4
-38 -11 -81z m409 75 c4 -6 10 -8 15 -5 5 3 4 -8 -1 -25 -13 -34 -16 -36 -47
-14 -31 21 -29 54 2 54 14 0 28 -5 31 -10z m-544 -43 c-8 -8 -11 -7 -11 4 0
20 13 34 18 19 3 -7 -1 -17 -7 -23z m417 -3 c3 -23 -37 -50 -62 -41 -19 8 -21
38 -4 55 20 20 62 11 66 -14z m-660 7 c18 -11 0 -42 -35 -58 -32 -15 -43 -9
-43 22 0 36 46 57 78 36z m730 -7 c42 -29 22 -71 -26 -53 -25 10 -37 32 -28
54 7 19 26 19 54 -1z m-506 -11 c4 -20 -13 -63 -25 -63 -4 0 -3 9 2 19 8 14 7
22 -4 31 -21 17 -19 30 4 30 11 0 21 -8 23 -17z m88 12 c0 -3 -7 -22 -17 -43
-12 -28 -17 -33 -20 -19 -7 29 6 67 22 67 8 0 15 -2 15 -5z m-412 -24 c3 -8
-1 -12 -9 -9 -7 2 -15 10 -17 17 -3 8 1 12 9 9 7 -2 15 -10 17 -17z m195 13
c11 -11 -5 -34 -23 -34 -10 0 -23 -7 -30 -15 -10 -12 -16 -13 -26 -4 -18 15
-18 24 2 43 15 16 65 22 77 10z m247 -16 c0 -12 -7 -30 -17 -40 -9 -10 -19
-35 -23 -56 -7 -36 -7 -36 -14 -10 -6 19 -1 41 16 77 24 54 38 65 38 29z m-89
-55 c-2 -65 -17 -123 -33 -123 -7 0 -8 16 -5 43 l5 42 -11 -37 c-16 -49 -31
-62 -22 -18 10 45 57 161 63 155 3 -3 4 -31 3 -62z m-64 41 c3 -9 -3 -24 -14
-36 -20 -20 -20 -20 -48 6 -15 14 -24 30 -20 35 10 17 75 13 82 -5z m623 2
c13 -17 10 -58 -5 -63 -13 -4 -47 56 -39 68 8 14 30 11 44 -5z m-130 -16 c25
-25 25 -32 1 -54 -36 -32 -74 8 -46 50 19 29 20 29 45 4z m-682 -12 c17 -17
15 -65 -3 -72 -37 -14 -65 26 -45 64 12 23 30 26 48 8z m110 -4 c31 -22 28
-31 -20 -52 -62 -28 -93 3 -48 48 24 24 38 25 68 4z m782 2 c-19 -18 -60 -30
-60 -18 0 10 38 30 60 31 13 1 13 -1 0 -13z m-118 -21 c10 -21 9 -29 -5 -43
-13 -13 -21 -14 -35 -6 -24 16 -27 45 -6 61 25 18 33 16 46 -12z m-593 -56
c-6 -29 -9 -82 -6 -119 l6 -65 -24 75 c-14 41 -25 91 -25 111 0 29 5 37 28 45
15 6 28 10 30 9 1 -1 -3 -26 -9 -56z m-245 26 c3 -8 2 -15 -3 -15 -5 0 -14 7
-21 15 -10 12 -10 15 3 15 8 0 17 -7 21 -15z m346 -28 c0 -5 -4 -5 -10 -2 -5
3 -10 14 -10 23 0 15 2 15 10 2 5 -8 10 -19 10 -23z m353 18 c0 -6 -7 -11 -16
-13 -12 -3 -15 1 -11 13 7 17 25 17 27 0z m-513 -15 c0 -18 -3 -19 -20 -10
-22 12 -18 30 6 30 8 0 14 -9 14 -20z m350 -3 c0 -17 -29 -57 -41 -57 -14 0
-11 23 7 48 17 24 34 29 34 9z m548 1 c-6 -16 -48 -45 -78 -53 -23 -6 -22 -3
12 29 37 35 74 48 66 24z m-980 -28 c3 -21 2 -22 -12 -11 -19 16 -21 44 -3 39
6 -3 14 -15 15 -28z m802 16 c-8 -7 -28 -16 -45 -20 l-30 -6 24 20 c27 24 75
30 51 6z m-770 -21 c0 -14 -4 -25 -10 -25 -11 0 -14 33 -3 43 11 11 13 8 13
-18z m810 3 c0 -13 -4 -29 -9 -37 -13 -20 -24 4 -17 35 8 30 26 32 26 2z
m-889 3 c-11 -7 -9 -10 7 -15 37 -12 101 -65 118 -98 16 -33 16 -33 -28 10
-59 56 -74 54 -18 -3 24 -25 39 -45 33 -45 -17 0 -63 40 -104 93 -30 38 -37
52 -27 58 7 5 18 9 23 9 6 0 4 -4 -4 -9z m118 -5 c14 -16 63 -158 57 -164 -9
-8 -26 10 -26 27 0 10 -13 37 -30 59 -39 55 -40 125 -1 78z m166 4 c3 -5 -1
-10 -9 -10 -9 0 -16 5 -16 10 0 6 4 10 9 10 6 0 13 -4 16 -10z m-293 -85 c21
7 93 -65 122 -124 15 -29 25 -55 23 -58 -5 -5 -18 12 -77 103 -22 34 -47 65
-56 68 -8 3 0 -13 19 -37 58 -72 54 -74 -19 -11 -99 87 -113 90 -21 4 43 -40
76 -75 73 -77 -3 -3 -27 7 -55 23 -59 31 -96 76 -122 145 l-19 49 59 -45 c33
-25 65 -43 73 -40z m708 81 c0 -3 -4 -8 -10 -11 -5 -3 -10 -1 -10 4 0 6 5 11
10 11 6 0 10 -2 10 -4z m-413 -22 c12 -3 24 -12 27 -20 4 -11 0 -11 -22 -2
-51 22 -55 35 -5 22z m-299 -25 c12 -19 11 -19 -8 -9 -11 6 -20 15 -20 20 0
17 15 11 28 -11z m265 -26 c5 -18 6 -40 2 -50 -6 -15 -9 -14 -21 12 l-14 30 6
-34 c5 -26 3 -32 -7 -26 -10 6 -9 2 2 -11 8 -10 25 -43 37 -72 19 -47 19 -53
5 -50 -9 2 -21 17 -26 33 -5 17 -16 38 -25 47 -9 11 -12 28 -9 45 3 15 1 36
-5 46 -5 11 -7 30 -3 44 9 36 47 28 58 -14z m567 -1 c0 -15 -5 -34 -10 -42 -7
-11 -9 -1 -8 32 2 48 18 57 18 10z m-509 2 l24 -27 -30 7 c-16 4 -33 13 -37
19 -23 36 10 36 43 1z m114 -1 c-5 -10 -7 -26 -6 -35 1 -10 -3 -18 -9 -18 -10
0 -6 53 6 72 10 16 17 0 9 -19z m545 8 c0 -13 -56 -24 -72 -15 -8 5 -6 10 8
15 27 11 64 11 64 0z m-298 -54 c-9 -16 -27 -33 -39 -38 -12 -4 -29 -25 -38
-45 -15 -35 -16 -36 -34 -20 -18 17 -17 19 48 85 66 68 97 77 63 18z m122 43
c-6 -6 -28 -13 -50 -16 -39 -5 -39 -5 -14 10 29 18 80 22 64 6z m-316 -12 c-6
-18 -28 -21 -28 -4 0 9 7 16 16 16 9 0 14 -5 12 -12z m-30 -146 c0 -65 -2 -74
-25 -92 -32 -25 -43 -18 -18 10 10 11 16 23 13 26 -3 3 -15 -7 -27 -22 -24
-31 -28 -16 -6 25 8 16 23 31 34 34 17 4 19 9 11 37 -5 17 -6 38 -3 46 3 8 0
14 -7 14 -8 0 -10 -12 -6 -39 4 -30 1 -43 -15 -57 -19 -17 -19 -16 -17 44 3
59 7 66 36 63 7 -1 12 11 13 31 2 65 18 -41 17 -120z m-114 117 c5 -4 -1 -20
-13 -35 -22 -29 -28 -83 -11 -114 6 -10 6 -21 1 -24 -5 -3 -21 22 -36 56 -25
56 -26 64 -15 99 12 35 16 38 39 33 14 -4 30 -10 35 -15z m459 -9 c4 -15 0
-20 -13 -20 -22 0 -35 30 -18 41 16 10 24 4 31 -21z m-71 -12 c-4 -30 -25 -58
-43 -58 -4 0 -9 10 -12 21 -7 27 19 69 42 69 14 0 17 -7 13 -32z m188 12 c0
-12 -42 -23 -67 -17 -15 3 -14 5 7 15 32 14 60 15 60 2z m-160 -14 c0 -8 -4
-18 -10 -21 -5 -3 -10 3 -10 14 0 12 5 21 10 21 6 0 10 -6 10 -14z m-376 -22
c10 -26 7 -40 -15 -68 -25 -32 -33 -29 -20 8 6 14 7 26 3 26 -5 0 -13 -12 -19
-27 l-11 -28 -1 30 c-2 53 47 99 63 59z m-249 -3 c3 -5 1 -12 -4 -15 -5 -3
-11 1 -15 9 -6 16 9 21 19 6z m533 -23 c-2 -16 -9 -22 -20 -20 -10 2 -18 -2
-18 -8 0 -5 -4 -10 -10 -10 -10 0 -3 27 13 48 16 21 39 14 35 -10z m-459 -12
c27 -28 25 -59 -1 -32 -27 26 -34 18 -8 -9 32 -34 8 -32 -32 3 -21 19 -29 34
-25 45 9 24 40 21 66 -7z m362 -38 c10 -18 9 -20 -4 -15 -9 3 -18 1 -20 -6 -3
-9 -7 -9 -17 0 -16 14 -6 43 14 43 9 0 20 -10 27 -22z m-62 -49 c-24 -15 -28
-10 -17 23 11 32 12 32 22 9 7 -17 6 -25 -5 -32z m-272 8 c25 9 93 -42 93 -70
0 -12 -40 7 -66 31 -20 18 -38 26 -56 24 -19 -2 -30 3 -37 17 -11 19 -10 20
21 7 18 -7 38 -11 45 -9z m136 -40 c-7 -59 -27 -57 -31 3 -2 28 1 46 10 51 21
13 27 -3 21 -54z m-119 -7 c7 -7 0 -10 -18 -10 -15 0 -25 -4 -21 -9 3 -6 14
-8 25 -6 11 2 20 -1 20 -7 0 -5 7 -7 16 -4 20 8 54 -2 54 -14 0 -12 -56 -41
-64 -33 -3 4 -6 15 -6 25 0 16 -5 18 -33 13 -24 -5 -39 -1 -56 12 -22 18 -23
20 -6 37 19 19 69 16 89 -4z m-4 -76 c0 -9 -7 -14 -17 -12 -25 5 -28 28 -4 28
12 0 21 -6 21 -16z"/>
            <path d="M1200 2112 c0 -6 5 -14 11 -18 8 -4 8 -9 0 -17 -6 -6 -11 -18 -11
-26 0 -11 4 -11 19 3 12 11 21 14 26 7 3 -6 11 -11 17 -11 7 0 6 6 -2 15 -10
12 -10 18 1 32 13 15 11 16 -10 10 -14 -3 -31 -1 -38 5 -9 7 -13 7 -13 0z"/>
            <path d="M1540 1951 c0 -12 -8 -21 -22 -24 l-23 -4 23 -8 c12 -4 22 -14 22
-21 0 -8 5 -14 10 -14 6 0 10 7 10 15 0 8 7 15 15 15 8 0 15 5 15 10 0 6 -7
10 -15 10 -8 0 -15 6 -15 14 0 8 -4 18 -10 21 -5 3 -10 -3 -10 -14z"/>
            <path d="M952 1943 c5 -25 28 -28 28 -4 0 12 -6 21 -16 21 -9 0 -14 -7 -12
-17z"/>
            <path d="M1256 1943 c-14 -15 -5 -43 14 -43 13 0 20 7 20 19 0 19 -23 35 -34
24z m24 -23 c0 -5 -4 -10 -10 -10 -5 0 -10 5 -10 10 0 6 5 10 10 10 6 0 10 -4
10 -10z"/>
            <path d="M1124 1836 c-8 -9 -8 -17 1 -29 7 -9 15 -17 18 -17 9 0 16 30 11 45
-7 18 -15 18 -30 1z"/>
            <path d="M912 1777 c-15 -17 1 -42 23 -33 18 6 17 37 -1 43 -6 2 -16 -2 -22
-10z m28 -12 c0 -8 -4 -15 -10 -15 -5 0 -10 7 -10 15 0 8 5 15 10 15 6 0 10
-7 10 -15z"/>
            <path d="M732 1749 c-10 -16 -10 -24 1 -39 13 -18 13 -18 25 1 10 16 10 24 -1
39 -13 18 -13 18 -25 -1z"/>
            <path d="M1720 1755 c9 -11 10 -18 1 -28 -6 -8 -8 -17 -4 -20 3 -4 12 -2 20 4
10 9 17 8 28 -1 9 -8 15 -9 15 -2 0 6 -5 14 -10 17 -8 5 -7 11 1 21 6 8 9 17
6 21 -4 3 -13 0 -21 -6 -10 -8 -16 -9 -21 -1 -3 5 -11 10 -17 10 -7 0 -6 -6 2
-15z"/>
            <path d="M1500 1730 c0 -5 5 -10 10 -10 6 0 10 5 10 10 0 6 -4 10 -10 10 -5 0
-10 -4 -10 -10z"/>
            <path d="M1041 1674 c9 -11 9 -18 -1 -29 -14 -17 0 -21 17 -4 8 8 13 8 17 0 4
-6 12 -11 18 -11 7 0 6 6 -2 15 -9 11 -9 19 -2 28 9 10 4 13 -24 14 -29 1 -33
-1 -23 -13z"/>
            <path d="M1428 1593 c-14 -16 -31 -39 -38 -51 -21 -41 -80 -206 -75 -210 3 -3
8 4 11 14 4 10 29 42 55 70 64 69 109 142 109 176 0 37 -28 37 -62 1z m52 2
c0 -28 -38 -90 -84 -141 l-46 -49 21 60 c32 87 70 145 96 145 7 0 13 -7 13
-15z"/>
            <path d="M1840 1565 c0 -8 7 -15 15 -15 8 0 15 7 15 15 0 8 -7 15 -15 15 -8 0
-15 -7 -15 -15z"/>
            <path d="M3897 1563 c-4 -3 -7 -30 -7 -59 0 -53 0 -53 -36 -60 -20 -4 -41 -16
-50 -29 -31 -48 -30 -228 2 -260 22 -21 144 -21 144 0 0 8 -4 15 -10 15 -6 0
-10 73 -10 200 0 160 -3 200 -13 200 -8 0 -17 -3 -20 -7z m-7 -273 c0 -112 -1
-120 -19 -120 -33 0 -51 38 -51 105 0 33 5 77 11 98 8 30 15 37 34 37 l25 0 0
-120z"/>
            <path d="M4166 1548 c-8 -13 -17 -41 -19 -63 -2 -21 -9 -41 -16 -43 -16 -5
-14 -32 4 -32 13 0 15 -22 15 -140 0 -133 1 -140 20 -140 19 0 20 7 20 139 l0
140 28 3 c40 4 35 32 -6 36 -33 3 -34 4 -27 40 9 50 13 54 45 47 31 -7 51 12
29 26 -28 17 -78 10 -93 -13z"/>
            <path d="M3222 1528 c-35 -44 -21 -115 38 -200 43 -60 57 -125 33 -149 -23
-23 -43 -2 -43 46 0 47 -23 73 -40 45 -10 -16 -3 -76 13 -108 25 -52 99 -37
117 25 16 54 -1 111 -49 167 -43 50 -62 116 -41 141 28 33 60 0 60 -61 0 -37
3 -44 20 -44 17 0 20 7 20 49 0 66 -27 101 -80 101 -20 0 -42 -6 -48 -12z"/>
            <path d="M1540 1510 c0 -13 7 -20 20 -20 13 0 20 7 20 20 0 13 -7 20 -20 20
-13 0 -20 -7 -20 -20z m30 0 c0 -5 -4 -10 -10 -10 -5 0 -10 5 -10 10 0 6 5 10
10 10 6 0 10 -4 10 -10z"/>
            <path d="M2217 1523 c-10 -9 -9 -381 1 -387 4 -2 14 -1 22 4 10 6 13 42 12
167 0 87 1 154 3 148 2 -5 13 -43 25 -84 26 -87 36 -84 69 19 l20 65 0 -157
c1 -151 2 -158 21 -158 19 0 20 7 20 195 0 184 -1 195 -19 195 -24 0 -38 -18
-60 -76 l-18 -47 -13 39 c-7 21 -19 49 -26 62 -14 21 -43 29 -57 15z"/>
            <path d="M3427 1524 c-4 -4 -7 -22 -7 -40 0 -19 -6 -34 -15 -38 -8 -3 -15 -12
-15 -21 0 -8 7 -15 15 -15 12 0 15 -19 15 -107 0 -130 5 -152 38 -164 37 -14
69 11 73 58 5 51 0 73 -16 73 -17 0 -25 -22 -25 -67 0 -23 -4 -33 -12 -31 -9
3 -14 39 -16 121 l-3 116 28 3 c37 4 37 32 1 36 -23 3 -27 8 -30 39 -3 35 -17
51 -31 37z"/>
            <path d="M4004 1515 c-8 -19 3 -35 26 -35 19 0 34 25 24 41 -8 14 -44 10 -50
-6z"/>
            <path d="M2520 1443 c-33 -12 -40 -36 -40 -148 0 -129 11 -155 64 -155 64 0
92 67 81 188 -9 99 -44 137 -105 115z m50 -48 c7 -9 13 -50 14 -104 1 -73 -2
-93 -16 -107 -14 -14 -20 -15 -32 -4 -13 10 -16 35 -16 115 0 56 3 105 7 108
11 11 30 8 43 -8z"/>
            <path d="M2705 1425 c-23 -22 -25 -31 -25 -125 0 -125 14 -160 64 -160 22 0
40 8 57 26 22 24 24 33 24 131 0 102 -1 105 -28 129 -36 31 -62 30 -92 -1z
m74 -46 c17 -50 14 -174 -5 -193 -20 -21 -31 -20 -44 3 -11 21 -14 204 -3 214
16 17 42 5 52 -24z"/>
            <path d="M2895 1441 c-6 -6 -9 -72 -7 -155 3 -137 4 -146 23 -146 18 0 19 8
19 125 0 125 0 125 26 137 40 18 45 -1 38 -134 -6 -106 -5 -118 11 -124 28
-11 35 14 35 127 0 156 -19 194 -86 169 -20 -8 -30 -8 -32 -1 -5 14 -15 14
-27 2z"/>
            <path d="M3584 1426 c-3 -13 -3 -70 0 -127 3 -57 5 -112 5 -121 1 -10 12 -25
25 -33 20 -13 29 -14 46 -5 16 9 25 9 33 1 6 -6 17 -11 25 -11 13 0 14 23 8
153 -4 83 -11 156 -16 161 -22 23 -30 -11 -30 -128 0 -122 -6 -146 -37 -146
-10 0 -13 29 -13 124 0 68 -3 131 -6 140 -9 24 -33 19 -40 -8z"/>
            <path d="M4000 1440 c-13 -9 -13 -12 2 -24 15 -11 18 -34 20 -142 3 -114 5
-129 21 -132 16 -3 17 7 15 150 -3 144 -4 153 -23 156 -11 1 -27 -2 -35 -8z"/>
            <path d="M4278 1445 c-4 -4 3 -32 14 -63 11 -32 24 -97 28 -145 4 -49 11 -91
14 -94 3 -3 12 -3 21 0 11 5 15 23 15 76 0 58 5 81 30 129 31 62 39 106 18
100 -7 -2 -24 -27 -38 -56 -14 -28 -28 -52 -31 -52 -3 0 -12 24 -20 52 -13 48
-34 70 -51 53z"/>
            <path d="M1941 1371 l-51 -59 57 -51 57 -51 34 32 c19 18 42 45 53 60 l19 26
-59 51 -58 51 -52 -59z"/>
            <path d="M4560 1375 l-54 -55 54 -55 c30 -30 57 -55 60 -55 4 0 28 25 55 56
l48 56 -54 54 -54 54 -55 -55z"/>
            <path d="M1828 1312 c-13 -15 -13 -19 2 -33 16 -15 18 -15 27 0 8 12 7 22 -2
34 -11 16 -13 16 -27 -1z"/>
            <path d="M640 1280 c0 -5 5 -10 10 -10 6 0 10 5 10 10 0 6 -4 10 -10 10 -5 0
-10 -4 -10 -10z"/>
        </g>
    </svg>
